<svg width="24" height="24" viewBox="0 0 24 24" fill="none" xmlns="http://www.w3.org/2000/svg">
<path d="M22.4039 0.575735C22.4039 1.6428 22.3639 3.76359 22.2839 6.9381C22.2305 10.0859 22.1772 13.007 22.1238 15.7013C22.0705 18.3957 22.0304 20.7299 22.0038 22.7039C21.0167 23.0507 20.0297 23.3042 19.0427 23.4642C18.0823 23.651 17.1086 23.7443 16.1216 23.7443C14.4676 23.7443 12.9204 23.4776 11.4799 22.944C10.066 22.4105 8.77218 21.5569 7.59842 20.3831C6.77144 18.8892 5.87778 16.595 4.91742 13.5005C4.17048 11.0996 3.46355 8.49868 2.79664 5.69764C2.39649 4.01701 1.99634 2.32305 1.59619 0.61575H11.1998L12.4402 4.93735L14.3609 11.0596C14.601 11.8332 15.1079 12.4601 15.8815 12.9403C16.6551 13.3938 17.4954 13.6206 18.4024 13.6206C19.4962 13.6206 20.2698 13.2738 20.7233 12.5802C21.2035 11.8599 21.4436 11.2864 21.4436 10.8596C21.4436 10.6195 21.4169 10.4327 21.3635 10.2993C20.9367 10.3527 20.6032 10.3794 20.3632 10.3794C19.2161 10.3794 18.0823 10.166 16.9619 9.73914C15.8682 9.31231 15.0679 8.76544 14.561 8.09853C13.7607 7.00479 13.3606 5.8577 13.3606 4.65725C13.3606 4.31045 13.4006 3.95032 13.4806 3.57685C13.774 2.40308 14.4276 1.56277 15.4413 1.05591C16.4817 0.522381 17.7489 0.255615 19.2427 0.255615C20.2831 0.255615 21.3368 0.362322 22.4039 0.575735Z" fill="white"/>
</svg>
