<svg width="194" height="50" viewBox="0 0 194 50" fill="none" xmlns="http://www.w3.org/2000/svg">
<path d="M193.783 0C193.783 0.0837445 193.804 0.314039 193.845 0.690882C193.887 1.06773 193.908 1.44457 193.908 1.82141C193.908 4.33371 193.49 6.40635 192.652 8.03934C191.396 10.5098 189.281 11.745 186.309 11.745C183.001 11.745 180.656 10.6563 179.274 8.47899C178.311 6.97161 177.83 5.00365 177.83 2.5751C177.83 1.9889 177.851 1.50738 177.892 1.13053C177.934 0.711817 177.997 0.334973 178.081 0H193.783ZM193.594 48.2988H178.332L178.458 11.4937C179.169 11.7031 179.777 11.8915 180.279 12.059C180.823 12.2265 181.41 12.4777 182.038 12.8127C182.666 12.9383 183.294 13.043 183.922 13.1267C184.55 13.2105 185.199 13.2523 185.869 13.2523C187.837 13.2523 189.512 12.8964 190.894 12.1846L193.594 11.1797V48.2988Z" fill="white"/>
<path d="M175.204 0.628057C175.12 1.13052 175.016 5.17112 174.89 12.7499C174.806 20.3286 174.743 27.0281 174.702 32.8482C174.66 38.6265 174.618 43.6511 174.576 47.922C173.99 48.4244 173.257 48.7803 172.378 48.9897C171.54 49.199 170.598 49.3037 169.551 49.3037C167.416 49.3037 165.678 48.9478 164.338 48.236C163.166 47.3986 162.182 46.5821 161.386 45.7865C160.633 44.9491 159.67 43.6929 158.497 42.0181V48.236C157.116 48.7384 155.587 48.9897 153.912 48.9897C152.154 48.9897 150.353 48.7384 148.511 48.236C146.71 47.7335 145.119 47.0845 143.738 46.289C141.183 43.8604 139.236 41.2225 137.896 38.3752C136.598 35.528 135.949 32.4085 135.949 29.017C135.949 28.0958 136.012 27.1537 136.138 26.1906C136.138 23.4271 136.829 20.9776 138.211 18.8422C139.592 16.7067 141.644 14.8016 144.366 13.1267C145.664 12.2893 147.255 11.724 149.139 11.4309C151.065 11.1378 153.033 10.9913 155.043 10.9913C155.797 10.9913 156.425 11.0122 156.927 11.0541C157.43 11.0541 157.848 11.075 158.183 11.1169C158.309 10.3632 158.393 8.7302 158.434 6.21791C158.476 3.66375 158.497 1.71672 158.497 0.376831C161.638 0.376831 164.82 0.397767 168.044 0.439638C171.31 0.439638 173.697 0.502444 175.204 0.628057ZM158.497 31.8433C158.539 31.7177 158.56 30.9849 158.56 29.645C158.56 28.3051 158.56 27.1327 158.56 26.1278V24.1808V22.4222V20.852V19.5331V18.4025V17.4604V16.7067C158.56 15.953 158.539 15.2831 158.497 14.6969C158.497 14.1107 158.497 13.5873 158.497 13.1267C156.362 13.7129 154.854 14.99 153.975 16.958C153.515 18.0466 153.138 19.8262 152.845 22.2966C153.138 25.1438 153.494 27.0909 153.912 28.1377C154.792 30.315 156.32 31.5502 158.497 31.8433Z" fill="white"/>
<path d="M132.263 0C132.263 0.0837445 132.284 0.314039 132.326 0.690882C132.368 1.06773 132.389 1.44457 132.389 1.82141C132.389 4.33371 131.97 6.40635 131.133 8.03934C129.877 10.5098 127.762 11.745 124.789 11.745C121.482 11.745 119.137 10.6563 117.755 8.47899C116.792 6.97161 116.31 5.00365 116.31 2.5751C116.31 1.9889 116.331 1.50738 116.373 1.13053C116.415 0.711817 116.478 0.334973 116.562 0H132.263ZM132.075 48.2988H116.813L116.938 11.4937C117.65 11.7031 118.257 11.8915 118.76 12.059C119.304 12.2265 119.89 12.4777 120.519 12.8127C121.147 12.9383 121.775 13.043 122.403 13.1267C123.031 13.2105 123.68 13.2523 124.35 13.2523C126.318 13.2523 127.993 12.8964 129.374 12.1846L132.075 11.1797V48.2988Z" fill="white"/>
<path d="M114.542 12.4358C114.542 14.1107 114.479 17.4395 114.354 22.4222C114.27 27.363 114.186 31.948 114.102 36.177C114.019 40.406 113.956 44.0698 113.914 47.1683C112.365 47.7126 110.815 48.1104 109.266 48.3616C107.759 48.6547 106.23 48.8013 104.681 48.8013C102.085 48.8013 99.6567 48.3825 97.3956 47.5451C95.1764 46.7077 93.1456 45.3678 91.3033 43.5255C90.0053 41.1806 88.6026 37.5797 87.0952 32.7226C85.9228 28.9542 84.8132 24.8717 83.7664 20.4752C83.1383 17.8373 82.5103 15.1784 81.8822 12.4986H96.9559L98.903 19.2818L101.918 28.8913C102.295 30.1056 103.09 31.0896 104.304 31.8433C105.519 32.5551 106.838 32.911 108.261 32.911C109.978 32.911 111.192 32.3667 111.904 31.278C112.658 30.1475 113.035 29.2473 113.035 28.5773C113.035 28.2005 112.993 27.9074 112.909 27.698C112.239 27.7818 111.716 27.8236 111.339 27.8236C109.538 27.8236 107.759 27.4887 106 26.8187C104.283 26.1488 103.027 25.2904 102.232 24.2436C100.976 22.5269 100.348 20.7264 100.348 18.8422C100.348 18.2979 100.41 17.7326 100.536 17.1464C100.997 15.304 102.022 13.9851 103.614 13.1895C105.247 12.3521 107.235 11.9334 109.58 11.9334C111.213 11.9334 112.867 12.1009 114.542 12.4358Z" fill="white"/>
<path d="M79.1334 47.922C77.7517 48.1732 76.349 48.2988 74.9253 48.2988C72.4549 48.2988 70.3613 47.922 68.6446 47.1683C66.6348 46.289 65.2111 44.9072 64.3737 43.023L63.1176 42.6462C63.3269 43.8186 63.4316 44.9281 63.4316 45.9749C63.4316 46.9799 63.4525 47.7126 63.4944 48.1732C62.9919 48.2569 61.9242 48.3197 60.2912 48.3616C58.7001 48.4035 57.4021 48.4244 56.3972 48.4244H55.2038H54.1989H53.3824H52.6915C52.0216 48.4244 51.3726 48.4244 50.7445 48.4244C50.1164 48.4244 49.7605 48.4244 49.6768 48.4244C48.0019 48.0895 46.6202 47.2311 45.5315 45.8493C44.4429 44.4676 43.6892 42.7718 43.2705 40.7619C43.1448 40.0501 43.082 39.3592 43.082 38.6893C43.082 36.6795 43.731 34.7952 45.0291 33.0366C46.2015 31.4455 47.8554 29.98 49.9908 28.6401L59.726 23.1131C60.8565 22.485 61.6939 21.8151 62.2383 21.1032C62.8245 20.3914 63.1176 19.4912 63.1176 18.4025C63.1176 16.9789 62.6151 15.8484 61.6102 15.0109C60.6471 14.1316 59.2863 13.5036 57.5277 13.1267C58.5326 14.2991 59.0351 15.8065 59.0351 17.6488C59.0351 18.7794 58.8885 19.8052 58.5954 20.7264C58.3442 21.6057 58.0092 22.3385 57.5905 22.9247C56.9624 23.8458 55.8528 24.6833 54.2617 25.437C52.6706 26.1906 51.2679 26.5675 50.0536 26.5675C49.5093 26.5675 48.944 26.5884 48.3578 26.6303C47.7716 26.6722 47.1854 26.714 46.5992 26.7559C46.0549 26.7559 45.4896 26.6931 44.9034 26.5675L44.715 11.1169C45.3012 11.2006 45.9921 11.2634 46.7877 11.3053C47.5832 11.3472 48.3788 11.3681 49.1743 11.3681C50.598 11.3681 52.8172 11.2844 55.8319 11.1169C58.8467 10.9494 61.1287 10.8657 62.6779 10.8657C66.7394 10.8657 69.9845 11.3053 72.413 12.1846C75.5534 13.3151 77.7935 15.2622 79.1334 18.0257C79.3428 18.4025 79.4684 19.4912 79.5103 21.2917C79.5521 23.0503 79.5731 24.4948 79.5731 25.6254C79.5731 28.8495 79.4893 33.3297 79.3218 39.0661C79.1962 44.7607 79.1334 47.7126 79.1334 47.922ZM62.4267 30.5243C62.4267 29.8963 62.3848 28.8914 62.3011 27.5096C62.2173 26.086 62.1754 25.2276 62.1754 24.9345C62.008 25.3113 61.2961 25.9394 60.04 26.8187C58.9932 27.5305 58.5954 28.3261 58.8467 29.2054C58.9304 29.7497 59.2026 30.1684 59.6632 30.4615C60.1237 30.7128 60.6471 30.8384 61.2333 30.8384C61.6939 30.8384 62.0917 30.7337 62.4267 30.5243Z" fill="white"/>
<path d="M40.2051 0.628057C40.1214 1.13052 40.0167 5.17112 39.8911 12.7499C39.8073 20.3286 39.7445 27.0281 39.7027 32.8482C39.6608 38.6265 39.6189 43.6511 39.577 47.922C38.9908 48.4244 38.2581 48.7803 37.3788 48.9897C36.5414 49.199 35.5993 49.3037 34.5525 49.3037C32.417 49.3037 30.6793 48.9478 29.3395 48.236C28.1671 47.3986 27.1831 46.5821 26.3875 45.7865C25.6338 44.9491 24.6708 43.6929 23.4984 42.0181V48.236C22.1166 48.7384 20.5883 48.9897 18.9134 48.9897C17.1548 48.9897 15.3544 48.7384 13.512 48.236C11.7115 47.7335 10.1204 47.0845 8.73867 46.289C6.1845 43.8604 4.23748 41.2225 2.89759 38.3752C1.59957 35.528 0.950562 32.4085 0.950562 29.017C0.950562 28.0958 1.01337 27.1537 1.13898 26.1906C1.13898 23.4271 1.82986 20.9776 3.21162 18.8422C4.59338 16.7067 6.64509 14.8016 9.36674 13.1267C10.6648 12.2893 12.2559 11.724 14.1401 11.4309C16.0662 11.1378 18.0341 10.9913 20.044 10.9913C20.7977 10.9913 21.4257 11.0122 21.9282 11.0541C22.4307 11.0541 22.8494 11.075 23.1843 11.1169C23.31 10.3632 23.3937 8.7302 23.4356 6.21791C23.4774 3.66375 23.4984 1.71672 23.4984 0.376831C26.6387 0.376831 29.821 0.397767 33.0451 0.439638C36.3111 0.439638 38.6977 0.502444 40.2051 0.628057ZM23.4984 31.8433C23.5403 31.7177 23.5612 30.9849 23.5612 29.645C23.5612 28.3051 23.5612 27.1327 23.5612 26.1278V24.1808V22.4222V20.852V19.5331V18.4025V17.4604V16.7067C23.5612 15.953 23.5403 15.2831 23.4984 14.6969C23.4984 14.1107 23.4984 13.5873 23.4984 13.1267C21.3629 13.7129 19.8556 14.99 18.9763 16.958C18.5157 18.0466 18.1388 19.8262 17.8457 22.2966C18.1388 25.1438 18.4947 27.0909 18.9134 28.1377C19.7928 30.315 21.3211 31.5502 23.4984 31.8433Z" fill="white"/>
</svg>
